<svg xmlns="http://www.w3.org/2000/svg" xmlns:xlink="http://www.w3.org/1999/xlink" viewBox="0 0 469.06 511"><defs><style>.cls-1{fill:none;}.cls-2{clip-path:url(#clip-path);}.cls-3{fill:#8ed7e8;}.cls-4{fill:#7ac1dd;}.cls-5{fill:#abebf4;}.cls-6{fill:#ccf8ff;}.cls-7{fill:#898890;}.cls-8{fill:#727177;}.cls-9{fill:#57565c;}</style><clipPath id="clip-path" transform="translate(-0.98 0)"><rect class="cls-1" width="471" height="511"/></clipPath></defs><title>Asset 1</title><g id="Layer_2" data-name="Layer 2"><g id="Layer_1-2" data-name="Layer 1"><g class="cls-2"><path class="cls-3" d="M29.11,504A19,19,0,0,1,1,487.27V165.42l289.67,71.81v250A19,19,0,0,1,262.52,504l-44.29-24.14-43.79,23.88a59.82,59.82,0,0,1-57.24,0L73.4,479.83,29.11,504Z" transform="translate(-0.98 0)"/></g><path class="cls-4" d="M290.65,237.23,1,165.42V420.34c37.39-7.51,88.54-14.77,144.84-14.2,55.13.55,106.48-12.3,144.83-25.74Z" transform="translate(-0.98 0)"/><path class="cls-5" d="M101,0V330.84H370c55.23,0,100-74.06,100-165.42S425.27,0,370,0Z" transform="translate(-0.98 0)"/><path class="cls-6" d="M1,165.42c0,91.36,44.78,165.42,100,165.42s100-74.06,100-165.42S156.22,0,101,0,1,74.06,1,165.42Z" transform="translate(-0.98 0)"/><path class="cls-7" d="M63.53,165.42c0,46.1,16.77,83.47,37.46,83.47s37.46-37.37,37.46-83.47S121.68,82,101,82s-37.46,37.36-37.46,83.46Z" transform="translate(-0.98 0)"/><path class="cls-8" d="M101,165.42c0,30.89-7.55,57.85-18.74,72.29,5.51,7.11,11.91,11.18,18.74,11.18,20.69,0,37.46-37.37,37.46-83.47S121.68,82,101,82C94.16,82,87.76,86,82.25,93.14,93.44,107.57,101,134.53,101,165.42Z" transform="translate(-0.98 0)"/><path class="cls-9" d="M252.59,175.5a7.71,7.71,0,0,1-7.71-7.71V155a7.71,7.71,0,0,1,15.42,0v12.81a7.71,7.71,0,0,1-7.71,7.71Z" transform="translate(-0.98 0)"/><path class="cls-9" d="M418.45,175.5a7.71,7.71,0,0,1-7.71-7.71V155a7.71,7.71,0,0,1,15.42,0v12.81a7.71,7.71,0,0,1-7.71,7.71Z" transform="translate(-0.98 0)"/><path class="cls-9" d="M335.52,183.57a46.09,46.09,0,0,1-28.29-9.69,7.71,7.71,0,1,1,9.45-12.18,30.74,30.74,0,0,0,37.68,0,7.71,7.71,0,1,1,9.45,12.18,46.09,46.09,0,0,1-28.29,9.69Z" transform="translate(-0.98 0)"/></g></g></svg>